<?xml version="1.0" encoding="UTF-8"?>
<svg version="1.1" xmlns="http://www.w3.org/2000/svg" width="1200" height="1200">
<path d="M0 0 C396 0 792 0 1200 0 C1200 396 1200 792 1200 1200 C804 1200 408 1200 0 1200 C0 804 0 408 0 0 Z " fill="#FEFEFE" transform="translate(0,0)"/>
<path d="M0 0 C279.36734694 0 279.36734694 0 325 39 C325.99 39.84046875 326.98 40.6809375 328 41.546875 C334.52015767 47.23630705 340.16392384 53.44997155 345.625 60.15234375 C348.98158332 64.17693132 352.47034872 67.44472948 356.625 70.625 C389.9153497 97.18904185 404.55776351 139.66183176 409.22448444 180.78793812 C410.93931054 196.99262333 411.42695096 212.98420752 411.36328125 229.26953125 C411.36128219 231.97637603 411.36323745 234.68321567 411.36479187 237.39006042 C411.36566374 243.01440536 411.35483477 248.63862725 411.33618164 254.26293945 C411.31739817 259.95731561 411.31034012 265.6515423 411.31567383 271.34594727 C411.37127699 332.66218518 411.37127699 332.66218518 409 358 C408.92006805 358.86219147 408.84013611 359.72438293 408.75778198 360.61270142 C407.73716271 371.281475 405.54951717 381.60919269 403 392 C402.72542969 393.15886719 402.45085937 394.31773437 402.16796875 395.51171875 C394.38991061 425.52294765 377.25161937 451.24151688 351 468 C342.09482131 473.16555452 332.56512734 477.23191953 323 481 C322.47737471 484.3022514 322.47737471 484.3022514 323 488 C325.11516473 489.96184658 326.82399724 491.23384998 329.25 492.6875 C339.0417857 499.119005 346.77228824 506.69073025 353.5625 516.25 C357.21500266 521.32401721 361.0326617 524.47258881 366.171875 527.9609375 C386.01698752 542.26915398 397.35631155 566.11240834 404 589 C404.30550781 590.02222656 404.61101562 591.04445313 404.92578125 592.09765625 C414.19664066 625.90063593 412.30252564 662.62707458 412.19561768 697.31774902 C412.18484353 701.70727989 412.18519644 706.09677966 412.18561649 710.48632145 C412.18518441 730.76663073 412.10869569 751.04235247 411.5703125 771.31640625 C411.54336587 772.39553473 411.54336587 772.39553473 411.51587486 773.49646378 C411.18062512 786.45435714 409.96954767 799.19140403 408 812 C407.85691406 812.97179199 407.71382812 813.94358398 407.56640625 814.94482422 C401.19869145 857.60992219 385.11816653 902.30886954 349.45605469 929.16259766 C304.56466957 962.02996987 248.17139654 963.50988954 194.85639548 963.30418181 C189.07629732 963.28515943 183.29619214 963.28364479 177.5160675 963.28010559 C166.61949584 963.27085896 155.72301674 963.24634748 144.82648546 963.21605712 C132.40042765 963.18228027 119.97436493 963.16596915 107.54827249 963.15097082 C82.032129 963.11978947 56.51607366 963.06655671 31 963 C31 953.1 31 943.2 31 933 C20.77 933 10.54 933 0 933 C0 625.11 0 317.22 0 0 Z " fill="#00BF63" transform="translate(654,121)"/>
<path d="M0 0 C224.7976203 0 224.7976203 0 246.9375 4.125 C248.08371826 4.33455322 249.22993652 4.54410645 250.41088867 4.76000977 C273.25368551 9.17529326 296.25738258 16.50509693 316 29 C316.84812256 29.53270508 316.84812256 29.53270508 317.71337891 30.07617188 C330.79134111 38.44427772 342.18879432 49.47706663 351.32421875 62.01171875 C354.12187593 65.33108356 357.58008316 67.81870093 360.97265625 70.50390625 C395.95326729 99.34598426 409.92827812 144.69318636 415.0625 188.3125 C415.21847656 189.60800781 415.37445312 190.90351563 415.53515625 192.23828125 C416.80078381 204.31224112 417.21771269 216.44128856 417.53515625 228.5703125 C417.55638739 229.35240396 417.57761852 230.13449543 417.59949303 230.94028664 C417.76392795 237.00161831 417.9156734 243.06321846 418.0625 249.125 C418.08457016 250.03003895 418.10664032 250.9350779 418.12937927 251.86754227 C422.37010767 427.10601411 422.37010767 427.10601411 412.6875 484 C412.57984314 484.64634399 412.47218628 485.29268799 412.36126709 485.95861816 C410.59113999 496.54190409 408.4272307 506.82962777 405 517 C404.74492676 517.76666992 404.48985352 518.53333984 404.22705078 519.32324219 C396.66840654 541.70550374 386.1440512 562.74529208 369.36376953 579.60839844 C368.16398256 580.83267086 367.01316523 582.10453066 365.87109375 583.3828125 C357.02412454 593.04349512 344.84633707 600.53745027 333 606 C332.34 606 331.68 606 331 606 C333.49399562 616.4931705 336.18283365 626.88316568 339.375 637.1875 C342.01175152 645.70400981 344.50413806 654.244849 346.88232422 662.83691406 C348.98809319 670.42406002 351.13788691 677.99760398 353.30859375 685.56640625 C353.60664917 686.60580353 353.90470459 687.64520081 354.21179199 688.71609497 C354.82855992 690.86660696 355.44536133 693.01710935 356.06219482 695.16760254 C360.35771855 710.145044 364.64324668 725.11730313 368.61183167 740.18531799 C370.34108663 746.69363001 372.2277307 753.13516715 374.22265625 759.56640625 C377.8303495 771.31548392 381.21814948 783.12167677 384.55224609 794.95092773 C385.49670544 798.30081459 386.44535444 801.64949401 387.39453125 804.99804688 C390.89618866 817.37822485 394.32008723 829.77608752 397.61804199 842.2122345 C399.3205601 848.60300182 401.15310303 854.93726437 403.125 861.25 C411.27637185 887.60093504 418.55228921 914.2538001 425.6328125 940.91015625 C427.11813802 946.48789539 428.71699324 952.02877657 430.37109375 957.55859375 C431 960 431 960 431 963 C386.78 963 342.56 963 297 963 C290 935 290 935 290 933 C282.08 933 274.16 933 266 933 C264.98679687 928.80410156 264.98679687 928.80410156 263.953125 924.5234375 C263.28519197 921.76610891 262.61627389 919.009021 261.94726562 916.25195312 C261.48855694 914.35929794 261.03084668 912.46640046 260.57421875 910.57324219 C258.19327243 900.70484625 255.74665804 890.89050814 252.89355469 881.14697266 C251.42414082 875.97190579 250.21712085 870.73903735 249 865.5 C247.18067133 857.78481491 245.24584736 850.16161754 242.9921875 842.5625 C241.71790989 837.98714104 240.64077671 833.37485774 239.5625 828.75 C238.01663878 822.12098686 236.36788812 815.54566599 234.5 809 C232.37684677 801.559805 230.56091365 794.06958325 228.8046875 786.53515625 C227.39555081 780.53524721 225.77655984 774.63028335 224.03125 768.71875 C222.72476954 764.00750228 221.61104005 759.26051846 220.5 754.5 C219.14747477 748.70594325 217.75607222 742.95614375 216.0625 737.25 C214.133636 730.72153724 212.56480527 724.12432613 211 717.5 C209.45492283 710.96008189 207.91405906 704.44399884 206 698 C203.76170681 690.46441293 202.01967338 682.81660678 200.21313477 675.16894531 C198.64911017 668.58826607 196.93061634 662.10648181 195.01171875 655.62109375 C193.64021658 650.71228095 192.43798664 645.76850764 191.25 640.8125 C191.02691162 639.88985352 190.80382324 638.96720703 190.57397461 638.01660156 C190.36909424 637.15131836 190.16421387 636.28603516 189.953125 635.39453125 C189.67710449 634.23207886 189.67710449 634.23207886 189.39550781 633.04614258 C189 631 189 631 189 628 C178.77 628 168.54 628 158 628 C158 738.88 158 849.76 158 964 C116.09 964 74.18 964 31 964 C31 953.77 31 943.54 31 933 C20.77 933 10.54 933 0 933 C0 625.11 0 317.22 0 0 Z " fill="#004095" transform="translate(187,121)"/>
<path d="M0 0 C80 0 80 0 95 6 C96.29296875 8.06640625 96.29296875 8.06640625 97.1875 10.5625 C97.64189453 11.77099609 97.64189453 11.77099609 98.10546875 13.00390625 C103.38959667 30.70227355 103.04799701 50.06858002 103.55078125 68.4140625 C103.57187328 69.18021189 103.59296532 69.94636127 103.6146965 70.73572731 C104.36571789 99.40932663 104.14960567 128.10962071 104.1285693 156.7908048 C104.12423973 163.38395833 104.12732306 169.97709265 104.1321975 176.57024497 C104.13678567 183.04526727 104.13735246 189.52028148 104.13475883 195.99530488 C104.13323019 199.81466101 104.13290534 203.63400438 104.13629532 207.4533596 C104.20711105 300.07391314 104.20711105 300.07391314 83.97265625 322.21875 C60.14435576 344.62510851 31.56596623 341 0 341 C0 228.47 0 115.94 0 0 Z " fill="#FEFEFE" transform="translate(345,264)"/>
<path d="M0 0 C5.97105508 3.61405965 10.91499804 8.24679634 16 13 C17.13501953 14.03640625 17.13501953 14.03640625 18.29296875 15.09375 C47.30503515 42.61670148 58.54264526 85.91272571 63.0625 124.3125 C63.29646484 126.25576172 63.29646484 126.25576172 63.53515625 128.23828125 C64.80078381 140.31224112 65.21771269 152.44128856 65.53515625 164.5703125 C65.55638739 165.35240396 65.57761852 166.13449543 65.59949303 166.94028664 C65.76392795 173.00161831 65.9156734 179.06321846 66.0625 185.125 C66.08457016 186.03003895 66.10664032 186.9350779 66.12937927 187.86754227 C70.37010767 363.10601411 70.37010767 363.10601411 60.6875 420 C60.57984314 420.64634399 60.47218628 421.29268799 60.36126709 421.95861816 C58.59113999 432.54190409 56.4272307 442.82962777 53 453 C52.74492676 453.76666992 52.48985352 454.53333984 52.22705078 455.32324219 C44.66840654 477.70550374 34.1440512 498.74529208 17.36376953 515.60839844 C16.16398256 516.83267086 15.01316523 518.10453066 13.87109375 519.3828125 C5.02412454 529.04349512 -7.15366293 536.53745027 -19 542 C-19.66 542 -20.32 542 -21 542 C-18.50600438 552.4931705 -15.81716635 562.88316568 -12.625 573.1875 C-9.98824848 581.70400981 -7.49586194 590.244849 -5.11767578 598.83691406 C-3.01190681 606.42406002 -0.86211309 613.99760398 1.30859375 621.56640625 C1.60664917 622.60580353 1.90470459 623.64520081 2.21179199 624.71609497 C2.82855992 626.86660696 3.44536133 629.01710935 4.06219482 631.16760254 C8.35771855 646.145044 12.64324668 661.11730313 16.61183167 676.18531799 C18.34108663 682.69363001 20.2277307 689.13516715 22.22265625 695.56640625 C25.8303495 707.31548392 29.21814948 719.12167677 32.55224609 730.95092773 C33.49670544 734.30081459 34.44535444 737.64949401 35.39453125 740.99804688 C38.89618866 753.37822485 42.32008723 765.77608752 45.61804199 778.2122345 C47.3205601 784.60300182 49.15310303 790.93726437 51.125 797.25 C59.27637185 823.60093504 66.55228921 850.2538001 73.6328125 876.91015625 C75.11813802 882.48789539 76.71699324 888.02877657 78.37109375 893.55859375 C79 896 79 896 79 899 C34.78 899 -9.44 899 -55 899 C-62 871 -62 871 -62 869 C-25.37 869 11.26 869 49 869 C47.68 865.37 46.36 861.74 45 858 C44.3653988 855.87563564 43.76200033 853.74130032 43.2109375 851.59375 C42.91437256 850.45558838 42.61780762 849.31742676 42.31225586 848.14477539 C42.00296143 846.94199951 41.69366699 845.73922363 41.375 844.5 C40.6804566 841.8412083 39.97987879 839.18403409 39.27734375 836.52734375 C39.09536942 835.83885849 38.91339508 835.15037323 38.72590637 834.44102478 C36.56038627 826.28740354 34.25904875 818.17285564 31.9375 810.0625 C31.72407959 809.31626373 31.51065918 808.57002747 31.29077148 807.80117798 C28.74136764 798.90132894 26.11731395 790.03011199 23.375 781.1875 C20.37899929 771.51676545 17.76929874 761.76106824 15.19311523 751.97119141 C12.55091293 741.96960612 9.78249861 732.0082589 6.9375 722.0625 C6.72380768 721.31517609 6.51011536 720.56785217 6.28994751 719.79788208 C3.74080795 710.89914007 1.1169768 702.02902483 -1.625 693.1875 C-4.62100071 683.51676545 -7.23070126 673.76106824 -9.80688477 663.97119141 C-12.44908707 653.96960612 -15.21750139 644.0082589 -18.0625 634.0625 C-18.27619232 633.31517609 -18.48988464 632.56785217 -18.71005249 631.79788208 C-21.25919205 622.89914007 -23.8830232 614.02902483 -26.625 605.1875 C-29.61893251 595.52344138 -32.22925474 585.7750191 -34.80029297 575.9909668 C-38.2472122 562.92961093 -41.96677056 549.94974892 -45.703125 536.96875 C-45.89557297 536.29853821 -46.08802094 535.62832642 -46.28630066 534.93780518 C-47.23971991 531.6212167 -48.20309566 528.30811332 -49.18554688 525 C-49.7356543 523.12828125 -49.7356543 523.12828125 -50.296875 521.21875 C-50.62526367 520.11466797 -50.95365234 519.01058594 -51.29199219 517.87304688 C-52 515 -52 515 -52 511 C-50.61941406 510.30777344 -50.61941406 510.30777344 -49.2109375 509.6015625 C-28.08607556 498.81110464 -10.69812949 484.23695852 2 464 C2.38349609 463.3910791 2.76699219 462.7821582 3.16210938 462.15478516 C27.15209926 423.36694975 31.73836689 378.17947505 33.625 333.6875 C33.65770493 332.92871552 33.69040985 332.16993103 33.72410583 331.38815308 C36.36203849 269.85303001 35.65547087 208.07838419 34.06317139 146.51837158 C34.0044205 144.17622619 33.95192215 141.83406454 33.90283203 139.49169922 C33.40607438 115.9507804 32.00235107 92.06431601 27 69 C26.74114014 67.78207764 26.74114014 67.78207764 26.47705078 66.53955078 C22.95287587 50.19357155 18.08184451 35.08923017 11 19.9375 C10.3953894 18.63425781 10.3953894 18.63425781 9.77856445 17.3046875 C7.36039881 12.27901981 4.65735905 7.92746552 1.13671875 3.59594727 C0 2 0 2 0 0 Z " fill="#7698C6" transform="translate(539,185)"/>
<path d="M0 0 C66 0 66 0 78 3 C79.9490625 3.4640625 79.9490625 3.4640625 81.9375 3.9375 C88.65816234 8.46366035 90.02239998 17.54055564 91.6875 25.0625 C92.13685171 27.3727263 92.57499111 29.68517172 93 32 C93.19464844 32.97195313 93.38929688 33.94390625 93.58984375 34.9453125 C95.79720234 46.25601124 96.15259385 57.44777349 96.16113281 68.94799805 C96.16577266 70.42117941 96.17079884 71.8943596 96.17617798 73.36753845 C96.18919002 77.33890869 96.19572458 81.31026212 96.20018864 85.2816503 C96.20313702 87.77186855 96.20724494 90.26208237 96.21169281 92.75229836 C96.22533699 100.57018404 96.23501918 108.38805941 96.2388947 116.20595616 C96.24337084 125.18172255 96.26091112 134.15733632 96.2898953 143.13305634 C96.3116155 150.10502349 96.32160443 157.07694801 96.32293582 164.04894859 C96.32397629 168.19761134 96.3297206 172.34613005 96.34775543 176.4947567 C96.36441684 180.40274157 96.36630563 184.31047682 96.35761642 188.21848488 C96.35685565 189.63889365 96.36105899 191.05931689 96.37107468 192.47969055 C96.51716604 214.5200771 91.9323733 237.32194688 76.33984375 253.71875 C54.83996074 274.68023861 29.93293764 272 0 272 C0 182.24 0 92.48 0 0 Z " fill="#FEFEFE" transform="translate(812,669)"/>
<path d="M0 0 C72 0 72 0 90 6 C95.48459128 17.65475646 96.4498627 30.43449676 96.40405273 43.12988281 C96.40977378 44.58728553 96.41674464 46.04468379 96.42485046 47.5020752 C96.44262237 51.42028826 96.44164193 55.33827538 96.43590808 59.25651646 C96.43278765 62.55529998 96.4389412 65.85404185 96.44494683 69.1528194 C96.45894315 76.95836102 96.45747655 84.76379314 96.44604492 92.56933594 C96.43461598 100.54788929 96.44856215 108.52610443 96.4754414 116.50461316 C96.4978208 123.41312392 96.50418511 130.32153032 96.49836498 137.23007464 C96.4950409 141.32984938 96.49709657 145.42940859 96.51461601 149.52915192 C96.64015945 182.06198359 95.88529496 217.29875443 72.8125 242.8125 C51.33562515 262.31448981 28.95072639 261 0 261 C0 174.87 0 88.74 0 0 Z " fill="#FEFEFE" transform="translate(812,264)"/>
<path d="M0 0 C4.73642598 1.46142512 7.85813417 4.27379111 11.375 7.625 C12.2397998 8.44121826 12.2397998 8.44121826 13.12207031 9.27392578 C45.63525686 40.25416424 52.55484627 84.99942608 54 128 C54.36126438 143.43448099 54.24319165 158.88042165 54.19561768 174.31774902 C54.18484353 178.70727989 54.18519644 183.09677966 54.18561649 187.48632145 C54.18518441 207.76663073 54.10869569 228.04235247 53.5703125 248.31640625 C53.54336587 249.39553473 53.54336587 249.39553473 53.51587486 250.49646378 C53.18062512 263.45435714 51.96954767 276.19140403 50 289 C49.85691406 289.97179199 49.71382812 290.94358398 49.56640625 291.94482422 C43.19869145 334.60992219 27.11816653 379.30886954 -8.54394531 406.16259766 C-53.43533043 439.02996987 -109.82860346 440.50988954 -163.14360452 440.30418181 C-168.92370268 440.28515943 -174.70380786 440.28364479 -180.4839325 440.28010559 C-191.38050416 440.27085896 -202.27698326 440.24634748 -213.17351454 440.21605712 C-225.59957235 440.18228027 -238.02563507 440.16596915 -250.45172751 440.15097082 C-275.967871 440.11978947 -301.48392634 440.06655671 -327 440 C-327 430.1 -327 420.2 -327 410 C-322.27469971 409.98018066 -317.54939941 409.96036133 -312.6809082 409.93994141 C-296.96295119 409.87264496 -281.24505653 409.79510762 -265.52717304 409.71247292 C-256.00958622 409.66267974 -246.4920066 409.61623787 -236.97436523 409.578125 C-228.66382373 409.54483691 -220.35334438 409.50481356 -212.04287213 409.45720994 C-207.65615683 409.43230397 -203.26948079 409.41042449 -198.88271523 409.39665604 C-178.16565923 409.32914263 -157.65061712 408.77748226 -137 407 C-136.15969553 406.9296265 -135.31939106 406.85925301 -134.45362282 406.78674698 C-95.03683265 403.43580818 -54.43065514 390.43065514 -26 362 C-25.21109375 361.21109375 -24.4221875 360.4221875 -23.609375 359.609375 C-0.88422514 335.61288808 9.55380677 302.65762685 16 271 C16.17015625 270.16581543 16.3403125 269.33163086 16.515625 268.47216797 C19.09613706 255.43891361 20.1352795 242.24302703 21 229 C21.08408615 227.72139603 21.1681723 226.44279205 21.25480652 225.1254425 C22.09401207 211.41945374 22.16371001 197.73585013 22.16796875 184.0078125 C22.17119407 181.52611269 22.17455903 179.04441306 22.17805481 176.56271362 C22.18400389 171.38392701 22.18589918 166.20515697 22.18530273 161.02636719 C22.18522162 155.77665755 22.19214651 150.52703545 22.20581055 145.27734375 C23.12835348 96.86833951 23.12835348 96.86833951 17 49 C16.82597656 48.1759668 16.65195313 47.35193359 16.47265625 46.50292969 C13.98957623 34.81104771 10.9086507 23.91221347 6 13 C5.71914551 12.37496582 5.43829102 11.74993164 5.14892578 11.10595703 C3.47051305 7.3857443 1.75273769 3.68572146 0 0 Z " fill="#76DDAB" transform="translate(1012,644)"/>
<path d="M0 0 C17.82 0 35.64 0 54 0 C55.155 4.558125 56.31 9.11625 57.5 13.8125 C57.86544922 15.24698486 58.23089844 16.68146973 58.60742188 18.15942383 C59.0337793 19.8536145 59.0337793 19.8536145 59.46875 21.58203125 C59.76201172 22.73936768 60.05527344 23.8967041 60.35742188 25.08911133 C61 28 61 28 61 31 C51.1 31 41.2 31 31 31 C31 141.88 31 252.76 31 367 C-10.91 367 -52.82 367 -96 367 C-96 356.77 -96 346.54 -96 336 C-64.32 336 -32.64 336 0 336 C0 225.12 0 114.24 0 0 Z " fill="#7798C6" transform="translate(314,718)"/>
<path d="M0 0 C30.27837626 18.32638563 46.04118533 53.73286964 54.30200195 86.63500977 C60.40984074 111.78808451 61.46405905 137.49276843 61.36328125 163.26953125 C61.36128219 165.97637603 61.36323745 168.68321567 61.36479187 171.39006042 C61.36566374 177.01440536 61.35483477 182.63862725 61.33618164 188.26293945 C61.31739817 193.95731561 61.31034012 199.6515423 61.31567383 205.34594727 C61.37127699 266.66218518 61.37127699 266.66218518 59 292 C58.92006805 292.86219147 58.84013611 293.72438293 58.75778198 294.61270142 C57.73716271 305.281475 55.54951717 315.60919269 53 326 C52.58814453 327.73830078 52.58814453 327.73830078 52.16796875 329.51171875 C44.38991061 359.52294765 27.25161937 385.24151688 1 402 C-7.21656632 406.76611674 -15.80411203 410.57306998 -24.83984375 413.50390625 C-27.41723706 414.92774379 -27.41723706 414.92774379 -27.81640625 418.65234375 C-27.90728516 420.30943359 -27.90728516 420.30943359 -28 422 C-28.51796143 421.74831055 -29.03592285 421.49662109 -29.56958008 421.23730469 C-42.62061289 414.86492175 -42.62061289 414.86492175 -56.1640625 409.65625 C-58 409 -58 409 -59 408 C-59.08726223 406.21928754 -59.10699041 404.4351686 -59.09765625 402.65234375 C-59.09443359 401.57275391 -59.09121094 400.49316406 -59.08789062 399.38085938 C-59.07951172 398.24455078 -59.07113281 397.10824219 -59.0625 395.9375 C-59.05798828 394.79732422 -59.05347656 393.65714844 -59.04882812 392.48242188 C-59.03699747 389.65489649 -59.0205141 386.8274736 -59 384 C-58.15924927 383.63104614 -58.15924927 383.63104614 -57.30151367 383.25463867 C-38.91873848 375.14316903 -22.31483391 366.29393634 -8 352 C-7.27167969 351.28328125 -6.54335938 350.5665625 -5.79296875 349.828125 C5.14125824 338.35473494 11.46214068 323.62424986 17 309 C17.24733887 308.35546875 17.49467773 307.7109375 17.74951172 307.046875 C24.44292412 289.1595545 27.03175953 269.5537666 28.125 250.578125 C28.18645486 249.51606748 28.18645486 249.51606748 28.24915123 248.43255424 C29.66088308 223.01219655 29.33719854 197.50496176 29.31368083 172.05331343 C29.30970506 166.27312604 29.32438247 160.49309548 29.3432439 154.71294361 C29.36109124 149.0243604 29.36682661 143.33584442 29.36360615 137.64723438 C29.3618335 134.29664094 29.36542695 130.94632265 29.37832069 127.59573555 C29.52411345 84.4821996 24.01779385 42.09110362 1.46875 4.625 C0 2 0 2 0 0 Z " fill="#75DCAA" transform="translate(1004,187)"/>
<path d="M0 0 C93.96381579 0 93.96381579 0 114.6875 19.25 C118.81016068 23.57928568 122.39494276 28.61850019 125 34 C124.67 34.99 124.34 35.98 124 37 C123.3709375 36.80664062 122.741875 36.61328125 122.09375 36.4140625 C121.2378125 36.15367187 120.381875 35.89328125 119.5 35.625 C118.24703125 35.24214844 118.24703125 35.24214844 116.96875 34.8515625 C89.39566965 26.94244208 59.68244569 31.38243261 31 31 C31 143.53 31 256.06 31 372 C42.55 372 54.1 372 66 372 C66 372.33 66 372.66 66 373 C44.22 373 22.44 373 0 373 C0 249.91 0 126.82 0 0 Z " fill="#7698C6" transform="translate(314,233)"/>
<path d="M0 0 C85.86534653 0 85.86534653 0 104.98828125 18.97265625 C108.98355024 23.27591171 115 29.83518911 115 36 C108.93726491 34.98954415 102.96284794 33.49071198 97 32 C64.33 31.505 64.33 31.505 31 31 C31 120.76 31 210.52 31 303 C41.56 303 52.12 303 63 303 C63 303.33 63 303.66 63 304 C42.21 304 21.42 304 0 304 C0 203.68 0 103.36 0 0 Z " fill="#76DDAB" transform="translate(781,638)"/>
<path d="M0 0 C90.25326926 0 90.25326926 0 110.35546875 20.078125 C120 30.73412112 120 30.73412112 120 37 C117.24991865 36.35451147 114.49993244 35.70862234 111.75 35.0625 C110.97269531 34.88009766 110.19539062 34.69769531 109.39453125 34.50976562 C108.64042969 34.33251953 107.88632812 34.15527344 107.109375 33.97265625 C106.41811523 33.81031494 105.72685547 33.64797363 105.01464844 33.48071289 C103.00628538 33.00149975 101.00309581 32.50077395 99 32 C65.34 31.505 65.34 31.505 31 31 C31 117.13 31 203.26 31 292 C40.57 292 50.14 292 60 292 C60 292.33 60 292.66 60 293 C40.2 293 20.4 293 0 293 C0 196.31 0 99.62 0 0 Z " fill="#75DCAA" transform="translate(781,233)"/>
</svg>
