<?xml version="1.0" encoding="UTF-8"?>
<svg version="1.1" xmlns="http://www.w3.org/2000/svg" width="64" height="64">
<path d="M0 0 C21.12 0 42.24 0 64 0 C64 21.12 64 42.24 64 64 C42.88 64 21.76 64 0 64 C0 42.88 0 21.76 0 0 Z " fill="#000202" transform="translate(0,0)"/>
<path d="M0 0 C0.66 0 1.32 0 2 0 C3.53208459 3.06416919 3.28287091 6.29707542 3.42578125 9.6875 C3.7748638 12.07999338 3.7748638 12.07999338 5.5859375 13.296875 C8.88639274 14.25817264 11.87726866 14.26380998 15.3125 14.25 C16.58738281 14.25515625 17.86226562 14.2603125 19.17578125 14.265625 C23.05247189 13.99635537 26.29805544 13.13905986 30 12 C36.26607238 11.57518153 36.26607238 11.57518153 38.734375 13.00390625 C42.0333122 14.45430105 44.97980264 14.22602363 48.5625 14.1875 C49.23474609 14.18685547 49.90699219 14.18621094 50.59960938 14.18554688 C53.66413171 14.1581579 56.0727161 13.9757613 59 13 C59.0825 11.741875 59.165 10.48375 59.25 9.1875 C59.390625 7.04296875 59.390625 7.04296875 60 5 C61.32 4.01 62.64 3.02 64 2 C64 12.89 64 23.78 64 35 C42.88 35 21.76 35 0 35 C0 23.45 0 11.9 0 0 Z " fill="#000100" transform="translate(0,29)"/>
<path d="M0 0 C0.49382716 7.40740741 0.49382716 7.40740741 -1.875 10.25 C-2.926875 11.11625 -2.926875 11.11625 -4 12 C-4.68268138 13.32520503 -5.3507041 14.65812182 -6 16 C-7.625 17.75 -7.625 17.75 -9 19 C-7.35 19.33 -5.7 19.66 -4 20 C-4 20.66 -4 21.32 -4 22 C-7.3 22 -10.6 22 -14 22 C-12 18 -12 18 -10 15 C-11.65 15.33 -13.3 15.66 -15 16 C-15 16.66 -15 17.32 -15 18 C-17.64 18 -20.28 18 -23 18 C-23 18.66 -23 19.32 -23 20 C-20.36 20 -17.72 20 -15 20 C-15 20.66 -15 21.32 -15 22 C-16.64574566 22.02688151 -18.29161413 22.04634123 -19.9375 22.0625 C-20.85402344 22.07410156 -21.77054688 22.08570312 -22.71484375 22.09765625 C-25 22 -25 22 -26 21 C-26.04080783 19.00041636 -26.04254356 16.99954746 -26 15 C-26.99 15 -27.98 15 -29 15 C-29 17.31 -29 19.62 -29 22 C-29.99 22 -30.98 22 -32 22 C-32 19.69 -32 17.38 -32 15 C-33.32 15 -34.64 15 -36 15 C-36 17.31 -36 19.62 -36 22 C-43.26 22 -50.52 22 -58 22 C-58 18.37 -58 14.74 -58 11 C-58.66 11 -59.32 11 -60 11 C-60 7.7 -60 4.4 -60 1 C-51.08040123 0.02092563 -42.2786009 -0.11936291 -33.3125 -0.0625 C-31.91731933 -0.05747028 -30.52213689 -0.05291 -29.12695312 -0.04882812 C-25.75125563 -0.03714751 -22.37565174 -0.02076833 -19 0 C-19 2.64 -19 5.28 -19 8 C-17.35 8 -15.7 8 -14 8 C-14.495 3.545 -14.495 3.545 -15 -1 C-9.24494947 -3.80374257 -5.57861091 -2.30582584 0 0 Z " fill="#115F52" transform="translate(63,19)"/>
<path d="M0 0 C6.27 0 12.54 0 19 0 C19 0.66 19 1.32 19 2 C16.69 2 14.38 2 12 2 C12 2.66 12 3.32 12 4 C14.31 4 16.62 4 19 4 C19 4.33 19 4.66 19 5 C16.69 5 14.38 5 12 5 C12 5.66 12 6.32 12 7 C14.64 7 17.28 7 20 7 C20 6.34 20 5.68 20 5 C20 3.35 20 1.7 20 0 C25.94 0 31.88 0 38 0 C38 0.66 38 1.32 38 2 C35.69 2 33.38 2 31 2 C31 3.65 31 5.3 31 7 C33.31 7 35.62 7 38 7 C38 7.99 38 8.98 38 10 C30.41 10 22.82 10 15 10 C15 11.65 15 13.3 15 15 C16.98 15 18.96 15 21 15 C21 13.68 21 12.36 21 11 C21.66 11 22.32 11 23 11 C23.02689216 12.47906892 23.04634621 13.95827483 23.0625 15.4375 C23.07410156 16.26121094 23.08570312 17.08492187 23.09765625 17.93359375 C23 20 23 20 22 21 C20.5112814 21.08669432 19.018555 21.10703494 17.52734375 21.09765625 C16.62822266 21.09443359 15.72910156 21.09121094 14.80273438 21.08789062 C13.85720703 21.07951172 12.91167969 21.07113281 11.9375 21.0625 C10.98810547 21.05798828 10.03871094 21.05347656 9.06054688 21.04882812 C6.70700469 21.03700128 4.35349468 21.01906521 2 21 C2 17.37 2 13.74 2 10 C1.34 10 0.68 10 0 10 C0 6.7 0 3.4 0 0 Z " fill="#1A5B66" transform="translate(3,20)"/>
<path d="M0 0 C1.78877559 0.03558664 3.57743683 0.07722026 5.3659668 0.12353516 C6.30949509 0.14477448 7.25302338 0.16601379 8.22514343 0.18789673 C10.22681513 0.23426 12.22842861 0.28319601 14.22998047 0.33447266 C17.29146278 0.41199694 20.35304717 0.4793062 23.41479492 0.54541016 C25.35686698 0.59166929 27.29892494 0.63852488 29.2409668 0.68603516 C30.15775711 0.7058847 31.07454742 0.72573425 32.01911926 0.7461853 C33.30516304 0.78094467 33.30516304 0.78094467 34.6171875 0.81640625 C35.36917923 0.83496674 36.12117096 0.85352722 36.89595032 0.87265015 C39.02892075 1.03965175 40.9465978 1.45841238 43.00268555 2.03759766 C43.00268555 4.67759766 43.00268555 7.31759766 43.00268555 10.03759766 C41.35268555 10.03759766 39.70268555 10.03759766 38.00268555 10.03759766 C38.00268555 7.39759766 38.00268555 4.75759766 38.00268555 2.03759766 C24.47268555 2.36759766 10.94268555 2.69759766 -2.99731445 3.03759766 C-2.99731445 6.33759766 -2.99731445 9.63759766 -2.99731445 13.03759766 C-2.33731445 13.03759766 -1.67731445 13.03759766 -0.99731445 13.03759766 C-0.99731445 16.66759766 -0.99731445 20.29759766 -0.99731445 24.03759766 C0.59081055 23.85197266 2.17893555 23.66634766 3.81518555 23.47509766 C9.65961588 22.92860547 15.1927415 23.30714047 21.00268555 24.03759766 C21.00268555 21.72759766 21.00268555 19.41759766 21.00268555 17.03759766 C22.32268555 17.03759766 23.64268555 17.03759766 25.00268555 17.03759766 C25.00268555 19.34759766 25.00268555 21.65759766 25.00268555 24.03759766 C25.99268555 24.03759766 26.98268555 24.03759766 28.00268555 24.03759766 C28.00268555 21.72759766 28.00268555 19.41759766 28.00268555 17.03759766 C28.99268555 17.03759766 29.98268555 17.03759766 31.00268555 17.03759766 C31.49768555 20.00759766 31.49768555 20.00759766 32.00268555 23.03759766 C35.30268555 23.36759766 38.60268555 23.69759766 42.00268555 24.03759766 C42.00268555 23.37759766 42.00268555 22.71759766 42.00268555 22.03759766 C39.36268555 22.03759766 36.72268555 22.03759766 34.00268555 22.03759766 C34.00268555 21.37759766 34.00268555 20.71759766 34.00268555 20.03759766 C36.64268555 20.03759766 39.28268555 20.03759766 42.00268555 20.03759766 C42.00268555 19.37759766 42.00268555 18.71759766 42.00268555 18.03759766 C39.36268555 18.03759766 36.72268555 18.03759766 34.00268555 18.03759766 C34.00268555 17.70759766 34.00268555 17.37759766 34.00268555 17.03759766 C38.29268555 17.03759766 42.58268555 17.03759766 47.00268555 17.03759766 C45.00268555 21.03759766 45.00268555 21.03759766 43.00268555 24.03759766 C46.30268555 24.03759766 49.60268555 24.03759766 53.00268555 24.03759766 C53.00268555 23.37759766 53.00268555 22.71759766 53.00268555 22.03759766 C51.02268555 22.03759766 49.04268555 22.03759766 47.00268555 22.03759766 C48.30476888 20.57275391 49.60685221 19.10791016 50.90893555 17.64306641 C52.28419795 15.94814966 52.28419795 15.94814966 52.00268555 13.03759766 C52.99268555 12.70759766 53.98268555 12.37759766 55.00268555 12.03759766 C55.80481183 10.16372549 55.80481183 10.16372549 56.19018555 7.97509766 C56.34874023 7.24162109 56.50729492 6.50814453 56.6706543 5.75244141 C56.78022461 5.18654297 56.88979492 4.62064453 57.00268555 4.03759766 C57.33268555 4.03759766 57.66268555 4.03759766 58.00268555 4.03759766 C58.08390478 5.64092556 58.14197689 7.24543792 58.19018555 8.85009766 C58.24239258 10.19007812 58.24239258 10.19007812 58.2956543 11.55712891 C57.94328338 14.54053599 57.11919732 15.04109429 55.00268555 17.03759766 C54.57779061 19.01835562 54.57779061 19.01835562 54.56518555 21.10009766 C54.00268555 25.03759766 54.00268555 25.03759766 52.4284668 26.26806641 C49.10150883 27.32347819 46.11386213 27.30151453 42.62768555 27.28759766 C41.34120117 27.29275391 40.0547168 27.29791016 38.72924805 27.30322266 C35.11550674 27.04563942 32.38430124 26.26902528 29.00268555 25.03759766 C25.53907064 24.79453696 22.95397794 24.61572016 19.7565918 26.03369141 C16.24085369 27.31531508 13.23851546 27.33889017 9.50268555 27.35009766 C8.21362305 27.36685547 6.92456055 27.38361328 5.59643555 27.40087891 C1.74855408 27.01190828 -0.12053303 26.61659764 -2.99731445 24.03759766 C-3.9230957 20.99853516 -3.9230957 20.99853516 -4.30981445 17.41259766 C-4.44645508 16.16865234 -4.5830957 14.92470703 -4.72387695 13.64306641 C-5.04651294 9.38888052 -5.2140094 5.29926494 -4.99731445 1.03759766 C-3.99731445 0.03759766 -3.99731445 0.03759766 0 0 Z " fill="#002914" transform="translate(5.997314453125,16.96240234375)"/>
<path d="M0 0 C2.05078125 0.03255208 4.1015625 0.06510417 6.15234375 0.09765625 C6.15234375 0.75765625 6.15234375 1.41765625 6.15234375 2.09765625 C3.84234375 2.09765625 1.53234375 2.09765625 -0.84765625 2.09765625 C-0.84765625 2.75765625 -0.84765625 3.41765625 -0.84765625 4.09765625 C1.46234375 4.09765625 3.77234375 4.09765625 6.15234375 4.09765625 C6.15234375 4.42765625 6.15234375 4.75765625 6.15234375 5.09765625 C3.84234375 5.09765625 1.53234375 5.09765625 -0.84765625 5.09765625 C-0.84765625 5.75765625 -0.84765625 6.41765625 -0.84765625 7.09765625 C1.79234375 7.09765625 4.43234375 7.09765625 7.15234375 7.09765625 C7.15234375 6.43765625 7.15234375 5.77765625 7.15234375 5.09765625 C7.15234375 3.44765625 7.15234375 1.79765625 7.15234375 0.09765625 C13.09234375 0.09765625 19.03234375 0.09765625 25.15234375 0.09765625 C25.15234375 0.75765625 25.15234375 1.41765625 25.15234375 2.09765625 C22.84234375 2.09765625 20.53234375 2.09765625 18.15234375 2.09765625 C18.15234375 3.74765625 18.15234375 5.39765625 18.15234375 7.09765625 C20.46234375 7.09765625 22.77234375 7.09765625 25.15234375 7.09765625 C25.15234375 8.08765625 25.15234375 9.07765625 25.15234375 10.09765625 C16.24234375 10.09765625 7.33234375 10.09765625 -1.84765625 10.09765625 C-3.33872082 7.11552712 -2.96707092 4.38155967 -2.84765625 1.09765625 C-1.84765625 0.09765625 -1.84765625 0.09765625 0 0 Z " fill="#80A9B2" transform="translate(15.84765625,19.90234375)"/>
<path d="M0 0 C0.80824219 0.28746094 1.61648437 0.57492188 2.44921875 0.87109375 C3.06410156 1.09925781 3.67898437 1.32742187 4.3125 1.5625 C4.5625 9.1875 4.5625 9.1875 2.3125 12.5625 C-3.49859182 14.49953061 -9.75386277 13.77965636 -15.6875 12.5625 C-15.6875 12.2325 -15.6875 11.9025 -15.6875 11.5625 C-13.0475 11.5625 -10.4075 11.5625 -7.6875 11.5625 C-7.6875 8.5925 -7.6875 5.6225 -7.6875 2.5625 C-8.6775 2.2325 -9.6675 1.9025 -10.6875 1.5625 C-6.43218885 -1.2743741 -4.69589572 -1.70141149 0 0 Z " fill="#0F3347" transform="translate(58.6875,17.4375)"/>
<path d="M0 0 C1.78877559 0.03558664 3.57743683 0.07722026 5.3659668 0.12353516 C6.30949509 0.14477448 7.25302338 0.16601379 8.22514343 0.18789673 C10.22681513 0.23426 12.22842861 0.28319601 14.22998047 0.33447266 C17.29146278 0.41199694 20.35304717 0.4793062 23.41479492 0.54541016 C25.35686698 0.59166929 27.29892494 0.63852488 29.2409668 0.68603516 C30.15775711 0.7058847 31.07454742 0.72573425 32.01911926 0.7461853 C33.30516304 0.78094467 33.30516304 0.78094467 34.6171875 0.81640625 C35.36917923 0.83496674 36.12117096 0.85352722 36.89595032 0.87265015 C39.02892075 1.03965175 40.9465978 1.45841238 43.00268555 2.03759766 C43.00268555 4.67759766 43.00268555 7.31759766 43.00268555 10.03759766 C41.35268555 10.03759766 39.70268555 10.03759766 38.00268555 10.03759766 C38.00268555 7.39759766 38.00268555 4.75759766 38.00268555 2.03759766 C24.47268555 2.36759766 10.94268555 2.69759766 -2.99731445 3.03759766 C-2.99731445 6.33759766 -2.99731445 9.63759766 -2.99731445 13.03759766 C-2.33731445 13.03759766 -1.67731445 13.03759766 -0.99731445 13.03759766 C-0.99731445 16.66759766 -0.99731445 20.29759766 -0.99731445 24.03759766 C0.63206055 23.85197266 2.26143555 23.66634766 3.94018555 23.47509766 C9.16352347 22.98794697 13.82268021 23.27333457 19.00268555 24.03759766 C19.00268555 24.36759766 19.00268555 24.69759766 19.00268555 25.03759766 C15.52353614 25.0664758 12.04441724 25.08435453 8.56518555 25.10009766 C7.07535156 25.11266602 7.07535156 25.11266602 5.55541992 25.12548828 C4.61118164 25.12871094 3.66694336 25.13193359 2.6940918 25.13525391 C1.38226929 25.14310913 1.38226929 25.14310913 0.04394531 25.15112305 C-1.99731445 25.03759766 -1.99731445 25.03759766 -2.99731445 24.03759766 C-4.43454172 16.40036079 -5.39237582 8.80713789 -4.99731445 1.03759766 C-3.99731445 0.03759766 -3.99731445 0.03759766 0 0 Z " fill="#072C31" transform="translate(5.997314453125,16.96240234375)"/>
<path d="M0 0 C0.33 0 0.66 0 1 0 C1.08121924 1.60332791 1.13929134 3.20784026 1.1875 4.8125 C1.23970703 6.15248047 1.23970703 6.15248047 1.29296875 7.51953125 C0.94059783 10.50293833 0.11651177 11.00349663 -2 13 C-2.42489493 14.98075796 -2.42489493 14.98075796 -2.4375 17.0625 C-3 21 -3 21 -4.5625 22.23046875 C-7.94811929 23.29932612 -11.01805998 23.263859 -14.5625 23.25 C-15.23474609 23.25773437 -15.90699219 23.26546875 -16.59960938 23.2734375 C-20.28422836 23.25880148 -21.85615148 23.09589902 -25 21 C-15.1 20.505 -15.1 20.505 -5 20 C-4.67 19.34 -4.34 18.68 -4 18 C-5.98 18 -7.96 18 -10 18 C-8.69791667 16.53515625 -7.39583333 15.0703125 -6.09375 13.60546875 C-4.71848759 11.910552 -4.71848759 11.910552 -5 9 C-4.01 8.67 -3.02 8.34 -2 8 C-1.19787372 6.12612784 -1.19787372 6.12612784 -0.8125 3.9375 C-0.65394531 3.20402344 -0.49539062 2.47054688 -0.33203125 1.71484375 C-0.16767578 0.86599609 -0.16767578 0.86599609 0 0 Z " fill="#00160E" transform="translate(63,21)"/>
<path d="M0 0 C1.23556641 0.01740234 1.23556641 0.01740234 2.49609375 0.03515625 C3.32238281 0.04417969 4.14867187 0.05320312 5 0.0625 C5.63808594 0.07410156 6.27617188 0.08570312 6.93359375 0.09765625 C6.93359375 0.75765625 6.93359375 1.41765625 6.93359375 2.09765625 C4.29359375 2.09765625 1.65359375 2.09765625 -1.06640625 2.09765625 C-1.06640625 2.75765625 -1.06640625 3.41765625 -1.06640625 4.09765625 C1.57359375 4.09765625 4.21359375 4.09765625 6.93359375 4.09765625 C6.93359375 4.75765625 6.93359375 5.41765625 6.93359375 6.09765625 C4.29359375 6.09765625 1.65359375 6.09765625 -1.06640625 6.09765625 C-1.06640625 6.75765625 -1.06640625 7.41765625 -1.06640625 8.09765625 C1.57359375 8.09765625 4.21359375 8.09765625 6.93359375 8.09765625 C6.93359375 8.75765625 6.93359375 9.41765625 6.93359375 10.09765625 C3.63359375 10.09765625 0.33359375 10.09765625 -3.06640625 10.09765625 C-3.1640625 3.1640625 -3.1640625 3.1640625 -3.06640625 1.09765625 C-2.06640625 0.09765625 -2.06640625 0.09765625 0 0 Z " fill="#57E19F" transform="translate(41.06640625,30.90234375)"/>
<path d="M0 0 C2.64 0 5.28 0 8 0 C8.33 1.65 8.66 3.3 9 5 C8.01 5 7.02 5 6 5 C6 5.66 6 6.32 6 7 C6.99 7 7.98 7 9 7 C9 7.66 9 8.32 9 9 C6.03824877 8.38722388 4.61941217 7.74627478 2 6 C2 6.99 2 7.98 2 9 C1.34 9 0.68 9 0 9 C0 6.03 0 3.06 0 0 Z " fill="#D9EDF5" transform="translate(3,20)"/>
<path d="M0 0 C4.29 0 8.58 0 13 0 C11 4 11 4 9 7 C11.97 7 14.94 7 18 7 C18 7.33 18 7.66 18 8 C11.73 8 5.46 8 -1 8 C-1 7.67 -1 7.34 -1 7 C1.97 7 4.94 7 8 7 C8 6.34 8 5.68 8 5 C5.36 5 2.72 5 0 5 C0 4.34 0 3.68 0 3 C2.64 3 5.28 3 8 3 C8 2.34 8 1.68 8 1 C5.36 1 2.72 1 0 1 C0 0.67 0 0.34 0 0 Z " fill="#055930" transform="translate(40,34)"/>
<path d="M0 0 C2.05078125 0.03255208 4.1015625 0.06510417 6.15234375 0.09765625 C6.15234375 0.75765625 6.15234375 1.41765625 6.15234375 2.09765625 C3.84234375 2.09765625 1.53234375 2.09765625 -0.84765625 2.09765625 C-0.84765625 2.75765625 -0.84765625 3.41765625 -0.84765625 4.09765625 C1.46234375 4.09765625 3.77234375 4.09765625 6.15234375 4.09765625 C6.15234375 5.74765625 6.15234375 7.39765625 6.15234375 9.09765625 C3.18234375 9.09765625 0.21234375 9.09765625 -2.84765625 9.09765625 C-2.9453125 2.9453125 -2.9453125 2.9453125 -2.84765625 1.09765625 C-1.84765625 0.09765625 -1.84765625 0.09765625 0 0 Z " fill="#B3D4E0" transform="translate(54.84765625,19.90234375)"/>
<path d="M0 0 C3.3 0 6.6 0 10 0 C8.38262276 3.23475448 7.52370777 4.70572021 5 7 C6.65 7.33 8.3 7.66 10 8 C10 8.66 10 9.32 10 10 C6.7 10 3.4 10 0 10 C1.61737724 6.76524552 2.47629223 5.29427979 5 3 C3.35 2.67 1.7 2.34 0 2 C0 1.34 0 0.68 0 0 Z " fill="#55DE9C" transform="translate(49,31)"/>
<path d="M0 0 C0.66 0 1.32 0 2 0 C2 1.32 2 2.64 2 4 C3.98 4 5.96 4 8 4 C8 2.68 8 1.36 8 0 C8.66 0 9.32 0 10 0 C10.02689216 1.47906892 10.04634621 2.95827483 10.0625 4.4375 C10.07410156 5.26121094 10.08570313 6.08492187 10.09765625 6.93359375 C10 9 10 9 9 10 C7.48071962 10.07179964 5.95832518 10.08392007 4.4375 10.0625 C3.61121094 10.05347656 2.78492188 10.04445313 1.93359375 10.03515625 C1.29550781 10.02355469 0.65742188 10.01195312 0 10 C0 9.34 0 8.68 0 8 C2.64 8 5.28 8 8 8 C8 7.34 8 6.68 8 6 C6.2984375 6.0309375 6.2984375 6.0309375 4.5625 6.0625 C1 6 1 6 0 5 C-0.04063832 3.33382885 -0.042721 1.66611905 0 0 Z " fill="#5AE4A2" transform="translate(16,31)"/>
<path d="M0 0 C2.97 0 5.94 0 9 0 C9.33 1.32 9.66 2.64 10 4 C9.67 3.34 9.34 2.68 9 2 C6.69 2 4.38 2 2 2 C2 3.98 2 5.96 2 8 C4.31 8 6.62 8 9 8 C9.33 7.34 9.66 6.68 10 6 C10 7.32 10 8.64 10 10 C6.7 10 3.4 10 0 10 C0 6.7 0 3.4 0 0 Z " fill="#56DF9D" transform="translate(5,31)"/>
<path d="M0 0 C2.64 0 5.28 0 8 0 C8 0.66 8 1.32 8 2 C5.69 2 3.38 2 1 2 C1 2.66 1 3.32 1 4 C3.31 4 5.62 4 8 4 C8 5.65 8 7.3 8 9 C5.36 9 2.72 9 0 9 C0 6 0 3 0 0 Z " fill="#CCE4EE" transform="translate(23,20)"/>
<path d="M0 0 C2.05078125 0.03255208 4.1015625 0.06510417 6.15234375 0.09765625 C6.15234375 0.75765625 6.15234375 1.41765625 6.15234375 2.09765625 C3.84234375 2.09765625 1.53234375 2.09765625 -0.84765625 2.09765625 C-0.84765625 2.75765625 -0.84765625 3.41765625 -0.84765625 4.09765625 C1.46234375 4.09765625 3.77234375 4.09765625 6.15234375 4.09765625 C6.15234375 4.42765625 6.15234375 4.75765625 6.15234375 5.09765625 C3.84234375 5.09765625 1.53234375 5.09765625 -0.84765625 5.09765625 C-0.84765625 5.75765625 -0.84765625 6.41765625 -0.84765625 7.09765625 C1.46234375 7.09765625 3.77234375 7.09765625 6.15234375 7.09765625 C6.15234375 7.75765625 6.15234375 8.41765625 6.15234375 9.09765625 C-0 9.1953125 -0 9.1953125 -1.84765625 9.09765625 C-2.84765625 8.09765625 -2.84765625 8.09765625 -2.97265625 4.59765625 C-2.81376564 0.14871911 -2.81376564 0.14871911 0 0 Z " fill="#D5EBF4" transform="translate(15.84765625,19.90234375)"/>
<path d="M0 0 C3.96 0 7.92 0 12 0 C12 0.33 12 0.66 12 1 C9.36 1.33 6.72 1.66 4 2 C3.67 4.64 3.34 7.28 3 10 C5.97 10 8.94 10 12 10 C7.16407087 13.22395275 2.04283751 12.28671404 -3.5625 11.5 C-4.366875 11.335 -5.17125 11.17 -6 11 C-6 10.67 -6 10.34 -6 10 C-3.36 10 -0.72 10 2 10 C2 7.03 2 4.06 2 1 C1.34 0.67 0.68 0.34 0 0 Z " fill="#175763" transform="translate(49,19)"/>
<path d="M0 0 C0.99 0.33 1.98 0.66 3 1 C3 1.66 3 2.32 3 3 C-3.7993311 6.98009626 -11.32414634 6.69370978 -19 6 C-19.99 5.34 -20.98 4.68 -22 4 C-14.74 3.67 -7.48 3.34 0 3 C0 2.01 0 1.02 0 0 Z " fill="#00190C" transform="translate(27,38)"/>
<path d="M0 0 C0.66 0 1.32 0 2 0 C2 2.31 2 4.62 2 7 C3.65 7 5.3 7 7 7 C7 4.69 7 2.38 7 0 C7.66 0 8.32 0 9 0 C9 2.97 9 5.94 9 9 C2.84765625 9.09765625 2.84765625 9.09765625 1 9 C0 8 0 8 -0.09765625 6.15234375 C-0.06510417 4.1015625 -0.03255208 2.05078125 0 0 Z " fill="#C8E4EE" transform="translate(42,20)"/>
<path d="M0 0 C2.31 0 4.62 0 7 0 C8.125 3.75 8.125 3.75 7 6 C4.69 6 2.38 6 0 6 C0 4.02 0 2.04 0 0 Z " fill="#2DAE70" transform="translate(7,33)"/>
<path d="M0 0 C0.226875 0.639375 0.45375 1.27875 0.6875 1.9375 C1.85250896 4.27193661 1.85250896 4.27193661 4.625 4.75 C5.40875 4.8325 6.1925 4.915 7 5 C7 5.33 7 5.66 7 6 C5.02 6 3.04 6 1 6 C0.67 6.66 0.34 7.32 0 8 C0 7.34 0 6.68 0 6 C-2.31 6 -4.62 6 -7 6 C-7 4.35 -7 2.7 -7 1 C-3.535 0.505 -3.535 0.505 0 0 Z " fill="#32759B" transform="translate(22,21)"/>
<path d="M0 0 C3.3 0 6.6 0 10 0 C10 0.66 10 1.32 10 2 C8.68 2 7.36 2 6 2 C6 4.64 6 7.28 6 10 C5.34 10 4.68 10 4 10 C4 7.36 4 4.72 4 2 C2.68 2 1.36 2 0 2 C0 1.34 0 0.68 0 0 Z " fill="#58E3A0" transform="translate(27,31)"/>
<path d="M0 0 C1.98 0 3.96 0 6 0 C6 1.65 6 3.3 6 5 C4.02 5 2.04 5 0 5 C0 3.35 0 1.7 0 0 Z " fill="#04472F" transform="translate(18,30)"/>
<path d="M0 0 C2.64 0 5.28 0 8 0 C8.33 1.65 8.66 3.3 9 5 C6.69 4.67 4.38 4.34 2 4 C2 3.01 2 2.02 2 1 C1.34 0.67 0.68 0.34 0 0 Z " fill="#9EC5DB" transform="translate(3,20)"/>
<path d="M0 0 C0.66 0.33 1.32 0.66 2 1 C2 3.31 2 5.62 2 8 C1.34 8 0.68 8 0 8 C0 6.68 0 5.36 0 4 C-2.31 4 -4.62 4 -7 4 C-7 3.34 -7 2.68 -7 2 C-4.69 2 -2.38 2 0 2 C0 1.34 0 0.68 0 0 Z " fill="#5590B1" transform="translate(31,20)"/>
<path d="M0 0 C2.05078125 0.03255208 4.1015625 0.06510417 6.15234375 0.09765625 C6.15234375 0.75765625 6.15234375 1.41765625 6.15234375 2.09765625 C3.84234375 2.09765625 1.53234375 2.09765625 -0.84765625 2.09765625 C-0.84765625 2.75765625 -0.84765625 3.41765625 -0.84765625 4.09765625 C1.46234375 4.09765625 3.77234375 4.09765625 6.15234375 4.09765625 C6.15234375 4.42765625 6.15234375 4.75765625 6.15234375 5.09765625 C3.51234375 5.09765625 0.87234375 5.09765625 -1.84765625 5.09765625 C-2.41015625 3.16015625 -2.41015625 3.16015625 -2.84765625 1.09765625 C-1.84765625 0.09765625 -1.84765625 0.09765625 0 0 Z " fill="#DCEEF7" transform="translate(54.84765625,19.90234375)"/>
<path d="M0 0 C0.66 0 1.32 0 2 0 C2.33 1.65 2.66 3.3 3 5 C5.31 5.33 7.62 5.66 10 6 C10 6.66 10 7.32 10 8 C5.545 8.495 5.545 8.495 1 9 C0.67 6.03 0.34 3.06 0 0 Z " fill="#097842" transform="translate(14,31)"/>
<path d="M0 0 C1.98 0 3.96 0 6 0 C6 1.32 6 2.64 6 4 C4.02 4 2.04 4 0 4 C0 2.68 0 1.36 0 0 Z " fill="#0A3247" transform="translate(35,23)"/>
<path d="M0 0 C1.32 0 2.64 0 4 0 C4 2.31 4 4.62 4 7 C2 5.75 2 5.75 0 4 C0 2.68 0 1.36 0 0 Z " fill="#013A1E" transform="translate(27,34)"/>
<path d="M0 0 C0.66 0 1.32 0 2 0 C2 1.32 2 2.64 2 4 C3.98 4 5.96 4 8 4 C8 4.33 8 4.66 8 5 C5.6739143 5.38063221 3.33944736 5.71269945 1 6 C0 5 0 5 -0.0625 2.4375 C-0.041875 1.633125 -0.02125 0.82875 0 0 Z " fill="#53DF9C" transform="translate(16,31)"/>
<path d="M0 0 C1.24546405 2.49092811 0.7767578 3.41080733 0 6 C-1.65 6 -3.3 6 -5 6 C-3.35 4.02 -1.7 2.04 0 0 Z " fill="#014423" transform="translate(58,33)"/>
</svg>
