<?xml version="1.0" encoding="UTF-8"?>
<svg version="1.1" xmlns="http://www.w3.org/2000/svg" width="1080" height="1080">
<path d="M0 0 C356.4 0 712.8 0 1080 0 C1080 356.4 1080 712.8 1080 1080 C723.6 1080 367.2 1080 0 1080 C0 723.6 0 367.2 0 0 Z " fill="#FEFEFE" transform="translate(0,0)"/>
<path d="M0 0 C182 0 182 0 202 2 C205.031875 2.28875 208.06375 2.5775 211.1875 2.875 C246.40702923 6.93879183 283.23367168 21.91743982 307 49 C308.02757084 50.39088085 309.04791319 51.78711969 310.0625 53.1875 C313.26257308 57.43249491 316.95231204 60.72401222 321 64.125 C321.61915283 64.64553955 322.23830566 65.1660791 322.8762207 65.70239258 C324.06738471 66.7012639 325.25901303 67.69958186 326.45117188 68.69726562 C353.0449596 91.0655587 364.73206815 130.03175491 368.375 163.375 C368.58796994 165.9163751 368.79643295 168.45787367 369 171 C369.09078827 172.12296982 369.18157654 173.24593964 369.27511597 174.40293884 C370.14546045 186.58178751 370.14560881 198.73611891 370.1328125 210.94140625 C370.13348831 213.23998525 370.13446063 215.53856418 370.13571167 217.83714294 C370.1371777 222.63533209 370.13507094 227.4335025 370.13037109 232.23168945 C370.12469722 238.31378214 370.12794499 244.39583045 370.13394356 250.47792149 C370.13759836 255.22179992 370.13638791 259.96566826 370.13381577 264.70954704 C370.13315883 266.94852644 370.13393057 269.18750682 370.13629532 271.42648506 C370.16959333 311.82696809 370.16959333 311.82696809 367.1875 329.5625 C366.92573975 331.19433228 366.92573975 331.19433228 366.65869141 332.85913086 C365.49449563 339.83023511 364.00051621 346.52639544 361.85546875 353.265625 C361.11582256 355.62979091 360.61295551 357.87871148 360.1875 360.3125 C354.6284291 386.40112219 335.7895511 407.803965 314 422 C297.8034188 432 297.8034188 432 290 432 C290 434.64 290 437.28 290 440 C290.55300781 440.25652344 291.10601563 440.51304687 291.67578125 440.77734375 C302.27492363 446.35302705 311.17689531 454.72593247 317.875 464.5625 C321.38908743 469.585619 325.2419648 472.62597941 330.26953125 476.05859375 C348.85432968 489.2726779 359.13172411 512.40482747 364 534 C364.26167969 534.91910156 364.52335937 535.83820312 364.79296875 536.78515625 C370.32123298 556.28842344 370.46182209 576.65932211 370.40297651 596.76389313 C370.39519337 600.27668342 370.40247689 603.78945447 370.40713501 607.30224609 C370.41254561 613.2020294 370.40553238 619.10169895 370.39111328 625.00146484 C370.37485698 631.72868648 370.38004324 638.45563411 370.3965925 645.18284893 C370.41041732 651.0470414 370.41202528 656.91115366 370.40427649 662.77535725 C370.39970482 666.23851783 370.39866966 669.70155199 370.40888596 673.16470337 C370.45963444 698.30421128 369.39541868 723.4892978 363.45117188 748.01220703 C362.74378123 751.12885997 362.27474054 754.28569307 361.75 757.4375 C360.01386668 766.31107028 356.45492284 774.44598471 352.93164062 782.73852539 C352.06715394 784.83698978 351.28996702 786.94747373 350.53125 789.0859375 C348.9413974 793.37415889 346.82140934 797.25505545 344.5 801.1875 C344.06856689 801.92073486 343.63713379 802.65396973 343.19262695 803.40942383 C338.82985324 810.61391091 333.61736682 816.74409993 328 823 C327.18402344 824.01320313 326.36804688 825.02640625 325.52734375 826.0703125 C312.93989597 840.66163528 293.00993889 850.13629897 275 856 C273.90429688 856.37640625 272.80859375 856.7528125 271.6796875 857.140625 C263.24982658 859.91605832 254.73891087 861.5921732 246 863 C245.03186811 863.16157845 244.06373623 863.32315689 243.06626701 863.48963165 C219.97742675 867.24395867 197.23946571 867.54003501 173.89411855 867.40557575 C168.70795372 867.38012424 163.52177368 867.37818639 158.33555603 867.37347412 C148.56877628 867.36117019 138.80218123 867.32852397 129.03548187 867.28807616 C117.89352604 867.24296029 106.75156015 867.22127258 95.60953534 867.20129442 C72.73958534 867.15977611 49.86981099 867.08884551 27 867 C27 858.09 27 849.18 27 840 C18.09 840 9.18 840 0 840 C0 562.8 0 285.6 0 0 Z " fill="#00BF63" transform="translate(589,109)"/>
<path d="M0 0 C261.93451327 0 261.93451327 0 306 43 C309.22813814 46.51398854 312.15952717 50.16814646 315 54 C315.63679688 54.845625 316.27359375 55.69125 316.9296875 56.5625 C320.48468336 61.44489775 323.35387484 66.37487332 325.859375 71.87109375 C326.87288755 74.02034436 326.87288755 74.02034436 328.46875 75.4296875 C352.69192949 100.27080524 349.29240761 163.24427252 350.13392639 195.29166031 C350.18890791 197.3656074 350.2472868 199.43943837 350.30627441 201.51327515 C351.60935036 247.87340706 351.62666966 294.27019867 350.125 340.625 C350.08588501 341.85634674 350.04677002 343.08769348 350.00646973 344.35635376 C349.60366536 356.59810832 349.03310242 368.81310063 348.0546875 381.0234375 C347.98049591 381.97086823 347.90630432 382.91829895 347.8298645 383.8944397 C347.34304382 389.53981399 346.52516051 395.04353435 345.43475342 400.60427856 C344.83895266 403.88745606 344.62370853 407.17441166 344.375 410.5 C342.50368946 428.94423896 335.94097867 446.88026875 327 463 C325.45714517 466.17458379 323.93591686 469.35848097 322.421875 472.546875 C320.90572993 475.16264177 319.1628898 476.90646138 317 479 C316.01201727 480.75287258 315.02495951 482.50642199 314.0625 484.2734375 C312.43546571 486.91736822 310.2401821 488.86909508 308 491 C307.175 491.99 306.35 492.98 305.5 494 C298.79439252 502.04672897 298.79439252 502.04672897 294 504 C294 504.66 294 505.32 294 506 C292.02849634 507.42934015 290.06462023 508.71776217 288 510 C287.31550781 510.45246094 286.63101562 510.90492188 285.92578125 511.37109375 C285.22839844 511.82613281 284.53101563 512.28117188 283.8125 512.75 C282.83216797 513.39195312 282.83216797 513.39195312 281.83203125 514.046875 C280 515 280 515 277 515 C277 515.66 277 516.32 277 517 C275.35 517.33 273.7 517.66 272 518 C274.28559749 527.62639882 276.88804026 537.10412647 279.78540039 546.56445312 C281.36467936 551.76255983 282.79437142 556.96776931 284.0625 562.25 C285.53986626 568.3564472 287.2986077 574.31035061 289.21728516 580.29101562 C290.72503452 585.02202901 291.96827702 589.76398646 293.109375 594.59375 C293.84255632 597.39784697 294.64941863 600.14194009 295.515625 602.90625 C295.78963135 603.78571289 296.0636377 604.66517578 296.34594727 605.57128906 C296.8940396 607.31589862 297.45136979 609.05764137 298.01928711 610.79589844 C299.67366425 616.07695844 300.28692912 620.46545608 300 626 C300.66 626 301.32 626 302 626 C303.77027709 631.71544528 305.52794334 637.43471234 307.265625 643.16015625 C307.55985352 644.12832275 307.85408203 645.09648926 308.15722656 646.09399414 C309.28976588 649.99915507 310.26559282 653.93469655 311.203125 657.890625 C312.28465835 662.11072572 313.54852948 666.26894273 314.8125 670.4375 C319.66011327 686.43943235 324.15606545 702.51886794 328.45800781 718.67578125 C330.07474977 724.70394481 331.77206501 730.68504995 333.6875 736.625 C335.55988545 742.44408028 337.11691199 748.27438016 338.55151367 754.21118164 C339.82840946 759.44961279 341.36849538 764.5689266 342.99609375 769.70703125 C344.1112915 773.36505343 345.09861758 777.05005403 346.0625 780.75 C347.11766157 784.79271706 348.21043166 788.75656385 349.625 792.6875 C350.81887054 796.08396593 351.41768796 799.3756575 351.9375 802.9375 C352.67887683 807.8946722 354.11741987 811.96080164 356.11328125 816.53125 C357.5715168 820.59118333 357.81768347 824.71556144 358 829 C358.66 829 359.32 829 360 829 C361.41404314 832.80024093 362.34892324 835.92922882 362 840 C360.09718997 841.90281003 357.29488824 841.12673993 354.76272583 841.13552856 C353.8642392 841.13350433 352.96575256 841.1314801 352.04003906 841.12939453 C351.09826813 841.13114685 350.15649719 841.13289917 349.18618774 841.13470459 C346.04598182 841.13913383 342.90583159 841.1361767 339.765625 841.1328125 C337.57533762 841.13348636 335.38505031 841.13445707 333.19476318 841.13571167 C328.58100683 841.13719098 323.96726975 841.13503076 319.35351562 841.13037109 C313.49835756 841.12474055 307.64324602 841.12790823 301.78808975 841.13394356 C297.24928453 841.13760059 292.71048985 841.13638616 288.17168427 841.13381577 C286.01757552 841.13315709 283.86346577 841.13393702 281.70935822 841.13629532 C267.77554955 841.14817668 253.9118198 840.79338744 240 840 C239.72356659 838.89422104 239.44713318 837.78844208 239.162323 836.64915466 C238.65932463 834.63723691 238.15624841 832.62533859 237.65283203 830.61352539 C236.78317564 827.13775785 235.91613211 823.6614094 235.0546875 820.18359375 C232.81864816 811.17367052 230.49273804 802.18917852 228.14111328 793.20874023 C226.67249964 787.59550705 225.23539376 781.9765938 223.84375 776.34375 C222.59318906 771.38782332 221.29394598 766.44475005 220 761.5 C217.62281807 752.41200605 215.29091019 743.31615336 213.07421875 734.1875 C211.54590106 727.93753219 209.97083668 721.75391563 208 715.625 C206.14831285 709.78894323 204.84143399 703.91516262 203.5703125 697.93408203 C202.4377017 692.70892697 201.06589841 687.6109019 199.5 682.5 C197.46898859 675.87102588 195.88684474 669.22028436 194.44702148 662.44042969 C193.5164743 658.12747671 192.42995064 653.95080835 191.0625 649.75 C189.22624907 644.06262358 187.90326444 638.33138792 186.625 632.5 C184.78108223 624.10104798 182.59536956 615.86993224 180.1628418 607.62402344 C178.53210871 602.03564481 177.14150266 596.44485826 175.9375 590.75 C173.74407583 580.39433053 170.85403264 570.24994199 167.375 560.25 C164.89474947 553.03472573 163.49366578 545.46832889 162 538 C146.82 538 131.64 538 116 538 C116.00222061 541.76873032 116.00444122 545.53746063 116.00672913 549.4203949 C116.026608 583.94219469 116.04154709 618.46399377 116.05106533 652.98579803 C116.05231611 657.50591289 116.05361042 662.02602774 116.05493164 666.54614258 C116.05519395 667.44605531 116.05545626 668.34596805 116.05572652 669.27315087 C116.06008352 683.86419433 116.06797123 698.45523388 116.0771528 713.04627501 C116.0864885 728.00651376 116.09205543 742.96675045 116.09408849 757.926992 C116.0954639 767.16593657 116.0998154 776.40487007 116.10791647 785.64381123 C116.1131829 791.97041066 116.11480453 798.29700432 116.11350138 804.62360578 C116.11285784 808.2793433 116.11387731 811.9350614 116.11920547 815.59079552 C116.12492654 819.54474484 116.12300114 823.49866843 116.12025452 827.45262146 C116.12316736 828.62088406 116.1260802 829.78914665 116.12908131 830.99281114 C116.12709026 832.04330426 116.12509921 833.09379738 116.12304783 834.17612362 C116.12342755 835.09011045 116.12380727 836.00409729 116.1241985 836.94578069 C116 839 116 839 115 840 C77.05 840 39.1 840 0 840 C0 562.8 0 285.6 0 0 Z " fill="#014095" transform="translate(168,109)"/>
<path d="M0 0 C74.81578947 0 74.81578947 0 84.1875 4.625 C85.10917969 5.07101563 86.03085937 5.51703125 86.98046875 5.9765625 C87.64691406 6.31429687 88.31335938 6.65203125 89 7 C89 7.66 89 8.32 89 9 C91.10732718 10.09268817 93.01264929 11.00341873 95.3125 11.625 C104.95475677 16.55824765 112.52675305 30.62098626 116.4375 40.5 C120.14679538 52.49795701 120.38603688 65.01854852 120.6171875 77.46875 C120.63562588 78.32458176 120.65406425 79.18041351 120.67306137 80.06217957 C121.22481198 105.80607944 121.15106696 131.55917532 121.12857032 157.30765533 C121.12479564 162.12291666 121.12616201 166.9381574 121.13037109 171.75341797 C121.174867 224.12033653 121.174867 224.12033653 120.5625 249.52734375 C120.54361851 250.34282684 120.52473701 251.15830994 120.50528336 251.99850464 C119.37546162 298.9742925 119.37546162 298.9742925 104 316 C103.54882812 316.57621094 103.09765625 317.15242188 102.6328125 317.74609375 C98.92196269 322.06260039 94.49429102 324.61290035 89.5 327.1875 C88.89043457 327.50847656 88.28086914 327.82945312 87.65283203 328.16015625 C60.5113153 341.42599225 28.88419986 335 0 335 C0 224.45 0 113.9 0 0 Z " fill="#FEFEFE" transform="translate(283,210)"/>
<path d="M0 0 C7.78796953 -0.10261565 15.57576064 -0.17196781 23.36425781 -0.21972656 C26.00618926 -0.23737956 28.64721635 -0.26682322 31.2890625 -0.30175781 C72.0639635 -0.82688911 72.0639635 -0.82688911 86 10 C88.80011095 12.78044725 91.36619135 15.59099362 93.90625 18.609375 C95.95522946 21.15826477 95.95522946 21.15826477 99 23 C99.88099571 25.20461728 100.44892018 27.41795137 101.05859375 29.7109375 C101.88294798 32.13693539 101.88294798 32.13693539 103.96875 33.953125 C115.70055631 45.77517597 114.15103176 73.40787461 114.14526367 88.7980957 C114.14862228 90.11053253 114.1519809 91.42296936 114.15544128 92.775177 C114.1641778 96.33529007 114.16661493 99.89537903 114.16725707 103.45550179 C114.16797334 105.69011125 114.17011841 107.92471477 114.17275429 110.15932274 C114.18197253 117.98439287 114.1860935 125.8094461 114.18530273 133.63452148 C114.18470247 140.88209255 114.19525337 148.12958907 114.2110464 155.3771413 C114.22419833 161.64002555 114.22948347 167.90288566 114.22884732 174.16578358 C114.22859464 177.88849122 114.23131744 181.61113242 114.24202538 185.33382607 C114.38239431 237.84494942 114.38239431 237.84494942 95.32421875 257.78515625 C84.55691434 268.04576398 68.87735369 273.11872085 54.14453125 273.1328125 C53.49292526 273.13417709 52.84131927 273.13554169 52.16996765 273.13694763 C50.05075967 273.13896818 47.93169368 273.13266139 45.8125 273.125 C45.08933594 273.12378143 44.36617187 273.12256287 43.62109375 273.12130737 C33.2412739 273.10085551 22.87394662 272.92848136 12.5 272.5625 C11.34991455 272.52334473 10.1998291 272.48418945 9.01489258 272.44384766 C7.96841553 272.40179199 6.92193848 272.35973633 5.84375 272.31640625 C4.92787109 272.27974854 4.01199219 272.24309082 3.06835938 272.20532227 C1 272 1 272 0 271 C-0.09666765 269.55085625 -0.12371805 268.09700895 -0.12304783 266.64464474 C-0.12503888 265.69865349 -0.12702993 264.75266224 -0.12908131 263.77800459 C-0.12616847 262.72647044 -0.12325563 261.67493629 -0.12025452 260.59153748 C-0.12110894 259.48404036 -0.12196337 258.37654325 -0.12284368 257.23548561 C-0.12450173 253.49348154 -0.11897182 249.75152148 -0.11352539 246.00952148 C-0.11324356 243.33945616 -0.11335705 240.6693936 -0.1139679 237.99932861 C-0.11449332 232.23493932 -0.11134457 226.47056131 -0.10573006 220.70617485 C-0.09761759 212.37174684 -0.0950001 204.03732432 -0.09374207 195.70289279 C-0.09155115 182.18221514 -0.08488998 168.66154352 -0.07543945 155.14086914 C-0.06626636 142.00349966 -0.05918503 128.8661318 -0.05493164 115.72875977 C-0.05466892 114.91954669 -0.05440619 114.11033361 -0.05413551 113.27659892 C-0.05283051 109.21718626 -0.05156679 105.15777358 -0.05032361 101.0983609 C-0.03994975 67.3989029 -0.02233036 33.69945219 0 0 Z " fill="#FEFEFE" transform="translate(703,574)"/>
<path d="M0 0 C5.52774745 -0.02510681 11.05546023 -0.04304801 16.58325195 -0.05493164 C18.45565368 -0.05989652 20.32805167 -0.06667065 22.20043945 -0.07543945 C59.80411439 -0.24686945 59.80411439 -0.24686945 67.3125 3 C71.42096472 4.52873106 75.65086919 4.67909326 80 5 C80.495 6.485 80.495 6.485 81 8 C83.18137797 9.02450239 83.18137797 9.02450239 86 10 C91.2784954 12.2412659 94.60624156 14.22359923 98 19 C98.99 19.66 99.98 20.32 101 21 C103.56809656 25.00320934 105.42017397 28.21643523 106 33 C106.66 33 107.32 33 108 33 C108.6483289 35.22844214 109.29356369 37.4577846 109.9375 39.6875 C110.29714844 40.92886719 110.65679688 42.17023438 111.02734375 43.44921875 C112.35630492 48.30072762 113.1252187 52.63494642 113.14717102 57.67205811 C113.15432632 58.80395569 113.16148163 59.93585327 113.16885376 61.10205078 C113.17154266 62.3352002 113.17423157 63.56834961 113.17700195 64.83886719 C113.18357315 66.14543274 113.19014435 67.45199829 113.19691467 68.79815674 C113.21791664 73.13105044 113.22832902 77.46394424 113.23828125 81.796875 C113.24233341 83.29859688 113.24645047 84.80031858 113.25063133 86.3020401 C113.26969236 93.37618887 113.28390877 100.45032729 113.2922433 107.52449679 C113.30195123 115.6269741 113.32809563 123.7291735 113.36874419 131.83155322 C113.39922535 138.1292346 113.41374286 144.42683797 113.41702431 150.72459149 C113.41934322 154.46736586 113.42787555 158.20984396 113.45348549 161.95253754 C113.75354904 208.23622957 113.75354904 208.23622957 104 228 C103.33871094 229.41732422 103.33871094 229.41732422 102.6640625 230.86328125 C95.33609673 245.49896978 84.08808976 253.66451991 69.3125 259.95703125 C60.16839275 262.83613105 51.20496798 263.27951836 41.67578125 263.1953125 C40.44836716 263.1924826 39.22095306 263.18965271 37.9563446 263.18673706 C34.07495962 263.1756325 30.19381405 263.15054606 26.3125 263.125 C23.6647169 263.11495763 21.01693014 263.10583399 18.36914062 263.09765625 C11.91268013 263.07572508 5.45635718 263.04234558 -1 263 C-1.02280979 230.36185079 -1.04050823 197.72370387 -1.05106533 165.08554851 C-1.05231604 161.23281358 -1.05361037 157.38007866 -1.05493164 153.52734375 C-1.05519395 152.76032962 -1.05545626 151.99331548 -1.05572652 151.2030585 C-1.0600785 138.78167885 -1.06796347 126.36030382 -1.0771528 113.93892692 C-1.08650244 101.19461838 -1.09205839 88.45031227 -1.09408849 75.70600045 C-1.09546099 67.8413181 -1.09979685 59.97664882 -1.10791647 52.1119705 C-1.11382443 46.08258334 -1.11445563 40.05320745 -1.11310768 34.02381706 C-1.11338324 31.54944847 -1.11537821 29.07507938 -1.11920547 26.60071373 C-1.12416939 23.22653781 -1.12298824 19.85241815 -1.12025452 16.47824097 C-1.12316736 15.4957443 -1.1260802 14.51324764 -1.12908131 13.50097835 C-1.1189488 8.88431769 -0.95376173 4.54162105 0 0 Z " fill="#FEFEFE" transform="translate(704,210)"/>
<path d="M0 0 C20.20761771 12.00742501 33.33820605 33.55775057 39.375 55.9375 C39.92619997 58.28945282 40.46875672 60.6434593 41 63 C41.26167969 63.91910156 41.52335937 64.83820313 41.79296875 65.78515625 C47.32123298 85.28842344 47.46182209 105.65932211 47.40297651 125.76389313 C47.39519337 129.27668342 47.40247689 132.78945447 47.40713501 136.30224609 C47.41254561 142.2020294 47.40553238 148.10169895 47.39111328 154.00146484 C47.37485698 160.72868648 47.38004324 167.45563411 47.3965925 174.18284893 C47.41041732 180.0470414 47.41202528 185.91115366 47.40427649 191.77535725 C47.39970482 195.23851783 47.39866966 198.70155199 47.40888596 202.16470337 C47.45963444 227.30421128 46.39541868 252.4892978 40.45117188 277.01220703 C39.74378123 280.12885997 39.27474054 283.28569307 38.75 286.4375 C37.01386668 295.31107028 33.45492284 303.44598471 29.93164062 311.73852539 C29.06715394 313.83698978 28.28996702 315.94747373 27.53125 318.0859375 C25.9413974 322.37415889 23.82140934 326.25505545 21.5 330.1875 C21.06856689 330.92073486 20.63713379 331.65396973 20.19262695 332.40942383 C15.82985324 339.61391091 10.61736682 345.74409993 5 352 C4.18402344 353.01320313 3.36804688 354.02640625 2.52734375 355.0703125 C-10.06010403 369.66163528 -29.99006111 379.13629897 -48 385 C-49.09570312 385.37640625 -50.19140625 385.7528125 -51.3203125 386.140625 C-59.75017342 388.91605832 -68.26108913 390.5921732 -77 392 C-77.96813189 392.16157845 -78.93626377 392.32315689 -79.93373299 392.48963165 C-103.02257325 396.24395867 -125.76053429 396.54003501 -149.10588145 396.40557575 C-154.29204628 396.38012424 -159.47822632 396.37818639 -164.66444397 396.37347412 C-174.43122372 396.36117019 -184.19781877 396.32852397 -193.96451813 396.28807616 C-205.10647396 396.24296029 -216.24843985 396.22127258 -227.39046466 396.20129442 C-250.26041466 396.15977611 -273.13018901 396.08884551 -296 396 C-296 387.09 -296 378.18 -296 369 C-304.91 369 -313.82 369 -323 369 C-323 368.67 -323 368.34 -323 368 C-322.05322136 367.99761165 -321.10644272 367.99522329 -320.13097382 367.99276257 C-296.9895856 367.93371222 -273.84829938 367.85767442 -250.70702362 367.76428509 C-239.51562956 367.7195057 -228.32426605 367.68005092 -217.1328125 367.65356445 C-207.36725606 367.63043862 -197.60179779 367.59688098 -187.83631945 367.55129844 C-182.67565029 367.52756087 -177.51507717 367.50870568 -172.35435486 367.50238609 C-141.55733787 367.51338282 -141.55733787 367.51338282 -111 364 C-110.25698828 363.87585346 -109.51397655 363.75170692 -108.74844933 363.62379837 C-104.56031894 362.92262285 -100.40397533 362.13125656 -96.25 361.25 C-94.43024658 360.86593994 -94.43024658 360.86593994 -92.57373047 360.47412109 C-60.79072433 353.49859428 -30.22519577 337.93862428 -12 310 C-7.0038736 301.88585311 -2.15214336 293.48887968 1.08203125 284.5 C1.78045995 282.59789632 2.56484363 280.72711294 3.38671875 278.875 C14.91216476 252.39840867 18.15660545 220.46962835 18.14526367 191.84790039 C18.14862228 190.60362274 18.1519809 189.35934509 18.15544128 188.07736206 C18.16324521 184.70277645 18.16661492 181.32825244 18.16725707 177.95366216 C18.16797419 175.83157233 18.17012091 173.70948871 18.17275429 171.58740044 C18.18197517 164.14444452 18.18609364 156.70150636 18.18530273 149.25854492 C18.18470416 142.38599595 18.1952211 135.51352602 18.2110464 128.64099699 C18.22425017 122.68884424 18.22948127 116.73671689 18.22884732 110.78454965 C18.22859589 107.25279761 18.23124508 103.72111583 18.24202538 100.18937874 C18.42671804 69.6031765 18.42671804 69.6031765 12.984375 39.640625 C12.04956966 36.18332904 11.41944441 32.77683914 10.8125 29.25 C8.97300813 20.21976718 4.77777024 12.08946353 0.77856445 3.84082031 C0 2 0 2 0 0 Z " fill="#75DCAA" transform="translate(912,580)"/>
<path d="M0 0 C15.70037036 10.03337278 27.62896117 24.47655318 36 41 C36.33241699 41.64614258 36.66483398 42.29228516 37.00732422 42.95800781 C46.35216364 61.45085901 51.73544744 82.56599652 54.0625 103.125 C54.21847656 104.42695313 54.37445312 105.72890625 54.53515625 107.0703125 C56.03641806 122.02751317 56.14855767 136.92345467 56.1328125 151.94140625 C56.13348831 154.23998525 56.13446063 156.53856418 56.13571167 158.83714294 C56.1371777 163.63533209 56.13507094 168.4335025 56.13037109 173.23168945 C56.12469722 179.31378214 56.12794499 185.39583045 56.13394356 191.47792149 C56.13759836 196.22179992 56.13638791 200.96566826 56.13381577 205.70954704 C56.13315883 207.94852644 56.13393057 210.18750682 56.13629532 212.42648506 C56.16959333 252.82696809 56.16959333 252.82696809 53.1875 270.5625 C53.01299316 271.65038818 52.83848633 272.73827637 52.65869141 273.85913086 C51.49449563 280.83023511 50.00051621 287.52639544 47.85546875 294.265625 C47.11582256 296.62979091 46.61295551 298.87871148 46.1875 301.3125 C40.6284291 327.40112219 21.7895511 348.803965 0 363 C-16.1965812 373 -16.1965812 373 -24 373 C-24 375.31 -24 377.62 -24 380 C-25.98 379.34 -27.96 378.68 -30 378 C-30 377.34 -30 376.68 -30 376 C-30.58265625 375.84144531 -31.1653125 375.68289063 -31.765625 375.51953125 C-38.7629449 373.52815562 -45.31781544 370.87489336 -52 368 C-52 360.41 -52 352.82 -52 345 C-47.05 343.02 -47.05 343.02 -42 341 C-20.2791128 331.26468414 1.14465317 315.37763952 10.08203125 292.42578125 C10.38496094 291.62527344 10.68789063 290.82476562 11 290 C11.45761719 288.96230469 11.91523437 287.92460937 12.38671875 286.85546875 C16.65029031 276.94293337 19.16211001 266.88205128 21.46704102 256.35864258 C21.96183607 254.16889679 22.50754019 252.00017428 23.07421875 249.828125 C28.12989035 228.92281629 27.16133066 206.38513881 27.16796875 185.05078125 C27.17119322 182.57952354 27.17455812 180.10826601 27.17805481 177.63700867 C27.18400175 172.48431964 27.18589928 167.33164728 27.18530273 162.17895508 C27.18520128 155.64525338 27.19885654 149.11166074 27.21607494 142.57798481 C27.22730757 137.48064198 27.22921853 132.38332461 27.22869301 127.28597069 C27.22985612 124.88034883 27.23418129 122.47472594 27.24202538 120.06911659 C27.33947627 87.10519332 25.32197155 52.30587837 11 22 C10.51080078 20.83210938 10.51080078 20.83210938 10.01171875 19.640625 C7.86610717 14.51941217 5.21826633 9.86710833 2.26953125 5.1640625 C1 3 1 3 0 0 Z " fill="#76DDAB" transform="translate(903,168)"/>
<path d="M0 0 C74.81578947 0 74.81578947 0 84.1875 4.625 C85.10917969 5.07101563 86.03085937 5.51703125 86.98046875 5.9765625 C87.64691406 6.31429687 88.31335938 6.65203125 89 7 C85.39880571 8.2003981 84.93331374 7.74273719 81.625 6.1875 C58.01086617 -2.99577427 20.58306116 1.31585583 1 1 C1 110.89 1 220.78 1 334 C9.58 334 18.16 334 27 334 C27 334.33 27 334.66 27 335 C18.09 335 9.18 335 0 335 C0 224.45 0 113.9 0 0 Z " fill="#84A6CF" transform="translate(283,210)"/>
<path d="M0 0 C0.33 0 0.66 0 1 0 C3.14408815 19.76277197 4.61183743 39.40905326 5.13392639 59.29166031 C5.18890791 61.3656074 5.2472868 63.43943837 5.30627441 65.51327515 C6.60935036 111.87340706 6.62666966 158.27019867 5.125 204.625 C5.08588501 205.85634674 5.04677002 207.08769348 5.00646973 208.35635376 C4.48228413 224.28704363 3.48713832 240.12998052 2 256 C1.67 256 1.34 256 1 256 C0.97216484 253.79174382 0.95324198 251.5833755 0.9375 249.375 C0.92589844 248.14523437 0.91429687 246.91546875 0.90234375 245.6484375 C0.93158443 241.96772464 1.18450108 238.3281727 1.47143555 234.65893555 C2.02413332 227.04571055 2.34372477 219.43816638 2.5546875 211.80859375 C2.5860914 210.69552258 2.5860914 210.69552258 2.61812973 209.55996513 C3.24912117 186.34669368 3.15080022 163.121404 3.13037109 139.90161133 C3.1246774 133.37633697 3.12806178 126.85110342 3.13380814 120.32583046 C3.151118 97.21295178 3.16475094 74.10240695 2.5546875 50.99609375 C2.52556463 49.83686748 2.52556463 49.83686748 2.49585342 48.65422249 C2.44062771 46.53934901 2.3782092 44.42485811 2.31201172 42.31030273 C2.2761496 41.15183334 2.24028748 39.99336395 2.20333862 38.79978943 C2.10977359 35.91818976 2.10977359 35.91818976 1 33 C0.8470353 30.48945095 0.74304822 28.00111475 0.68359375 25.48828125 C0.66281265 24.76005661 0.64203156 24.03183197 0.62062073 23.28153992 C0.55531254 20.95862125 0.49632763 18.63559094 0.4375 16.3125 C0.39429695 14.73631665 0.35068208 13.16014452 0.30664062 11.58398438 C0.1996504 7.72277025 0.09833039 3.86144397 0 0 Z " fill="#638ABE" transform="translate(513,245)"/>
<path d="M0 0 C2.5847236 3.87708541 2.62782738 6.38505957 3 11 C1.09718997 12.90281003 -1.70511176 12.12673993 -4.23727417 12.13552856 C-5.1357608 12.13350433 -6.03424744 12.1314801 -6.95996094 12.12939453 C-8.37261734 12.13202301 -8.37261734 12.13202301 -9.81381226 12.13470459 C-12.95401818 12.13913383 -16.09416841 12.1361767 -19.234375 12.1328125 C-21.42466238 12.13348636 -23.61494969 12.13445707 -25.80523682 12.13571167 C-30.41899317 12.13719098 -35.03273025 12.13503076 -39.64648438 12.13037109 C-45.50164244 12.12474055 -51.35675398 12.12790823 -57.21191025 12.13394356 C-61.75071547 12.13760059 -66.28951015 12.13638616 -70.82831573 12.13381577 C-72.98242448 12.13315709 -75.13653423 12.13393702 -77.29064178 12.13629532 C-91.22445045 12.14817668 -105.0881802 11.79338744 -119 11 C-119 10.67 -119 10.34 -119 10 C-79.4 10 -39.8 10 1 10 C0.67 6.7 0.34 3.4 0 0 Z " fill="#7797C6" transform="translate(527,938)"/>
<path d="M0 0 C8.54572328 -0.04657127 17.09139253 -0.08199411 25.6372118 -0.10362434 C29.60641308 -0.11401164 33.57552682 -0.12807714 37.54467773 -0.15087891 C41.38317906 -0.1727893 45.22159678 -0.18460652 49.06015587 -0.18975449 C50.51639813 -0.19341788 51.9726364 -0.20057041 53.42884254 -0.21146011 C64.05879767 -0.28770942 74.46872257 -0.17127977 84.1875 4.625 C85.10917969 5.07101563 86.03085937 5.51703125 86.98046875 5.9765625 C87.64691406 6.31429687 88.31335938 6.65203125 89 7 C85.39880571 8.2003981 84.93331374 7.74273719 81.625 6.1875 C71.01253335 1.7058538 59.52661903 1.68772046 48.16796875 1.5859375 C46.79648247 1.56716714 45.42500703 1.54758969 44.05354309 1.5272522 C40.49126663 1.47654312 36.92895296 1.43659553 33.36651611 1.39910889 C29.71235422 1.35867882 26.05833877 1.30776726 22.40429688 1.2578125 C15.26963919 1.16178125 8.13488895 1.07715055 1 1 C1 3.31 1 5.62 1 8 C0.67 8 0.34 8 0 8 C0 5.36 0 2.72 0 0 Z " fill="#86A3CD" transform="translate(283,210)"/>
<path d="M0 0 C6.84610177 -0.02563256 13.69219088 -0.04298375 20.53833008 -0.05493164 C22.86092593 -0.05991955 25.18351871 -0.06671226 27.50610352 -0.07543945 C63.98970404 -0.20896393 63.98970404 -0.20896393 77 5 C77 5.33 77 5.66 77 6 C75.35369672 5.85957123 73.70795821 5.71250671 72.0625 5.5625 C70.68771484 5.44068359 70.68771484 5.44068359 69.28515625 5.31640625 C67 5 67 5 66 4 C51.08089389 1.44173127 35.53654249 1.76437686 20.4375 1.4375 C18.53970718 1.39415805 16.64192064 1.35053974 14.74414062 1.30664062 C10.16282638 1.20125408 5.58144437 1.09956182 1 1 C1 2.98 1 4.96 1 7 C0.67 7 0.34 7 0 7 C0 4.69 0 2.38 0 0 Z " fill="#4CD192" transform="translate(703,209)"/>
<path d="M0 0 C24.98265839 -0.82555811 24.98265839 -0.82555811 35 4 C35 4.33 35 4.66 35 5 C33.35369672 4.85957123 31.70795821 4.71250671 30.0625 4.5625 C28.68771484 4.44068359 28.68771484 4.44068359 27.28515625 4.31640625 C25 4 25 4 24 3 C18.70565779 2.07056411 13.42517821 1.71781137 8.0625 1.4375 C7.28326172 1.39431641 6.50402344 1.35113281 5.70117188 1.30664062 C3.80092883 1.20171923 1.90048331 1.1004755 0 1 C0 0.67 0 0.34 0 0 Z " fill="#7ADCAD" transform="translate(745,210)"/>
<path d="M0 0 C12.70963597 -0.39925558 22.6068054 1.22627276 34 7 C31 8 31 8 29.2578125 7.328125 C28.55398438 6.97234375 27.85015625 6.6165625 27.125 6.25 C18.64238477 2.59282457 9.09457127 2.08944078 0 1 C0 0.67 0 0.34 0 0 Z " fill="#7598C5" transform="translate(338,210)"/>
<path d="M0 0 C3.8884943 2.11331212 5.70578044 3.22942496 7.3125 7.4375 C7.6528125 9.2009375 7.6528125 9.2009375 8 11 C8.20625 11.969375 8.4125 12.93875 8.625 13.9375 C8.74875 14.618125 8.8725 15.29875 9 16 C6.18368359 13.50506504 4.59044019 10.73437182 2.8125 7.4375 C2.28269531 6.46683594 1.75289063 5.49617187 1.20703125 4.49609375 C0 2 0 2 0 0 Z " fill="#83A1CA" transform="translate(487,168)"/>
<path d="M0 0 C2.5847236 3.87708541 2.62782738 6.38505957 3 11 C2 12 2 12 0.15234375 12.09765625 C-1.8984375 12.06510417 -3.94921875 12.03255208 -6 12 C-3.35261084 10.5393715 -2.10551666 10 1 10 C0.67 6.7 0.34 3.4 0 0 Z " fill="#7496C5" transform="translate(527,938)"/>
</svg>
